# Blender v2.79 (sub 0) OBJ File: 'kubik-rubik.blend'
# www.blender.org
mtllib kubik-rubik.mtl
o Cube
v 1.000000 0.000000 -1.000000
v 1.000000 0.000000 1.000000
v -1.000000 0.000000 1.000000
v -1.000000 0.000000 -1.000000
v 1.000000 2.000000 -0.999999
v 0.999999 2.000000 1.000001
v -1.000000 2.000000 1.000000
v -1.000000 2.000000 -1.000000
v 0.333333 0.000000 -1.000000
v -0.333333 0.000000 -1.000000
v 0.333333 0.000000 1.000000
v -0.333333 0.000000 1.000000
v 0.333334 2.000000 -1.000000
v -0.333333 2.000000 -1.000000
v 0.333333 2.000000 1.000000
v -0.333334 2.000000 1.000000
v 1.000000 0.666667 -1.000000
v 1.000000 1.333333 -1.000000
v 1.000000 0.666667 1.000000
v 1.000000 1.333333 1.000000
v -1.000000 0.666667 1.000000
v -1.000000 1.333333 1.000000
v -1.000000 0.666667 -1.000000
v -1.000000 1.333333 -1.000000
v 0.333333 0.666667 -1.000000
v 0.333334 1.333333 -1.000000
v -0.333333 0.666667 -1.000000
v -0.333333 1.333333 -1.000000
v 0.333333 1.333333 1.000000
v 0.333333 0.666667 1.000000
v -0.333334 1.333333 1.000000
v -0.333334 0.666667 1.000000
v 1.000000 0.000000 -0.333333
v 1.000000 0.000000 0.333333
v -1.000000 0.000000 0.333333
v -1.000000 0.000000 -0.333334
v 1.000000 2.000000 -0.333333
v 1.000000 2.000000 0.333334
v -1.000000 2.000000 0.333333
v -1.000000 2.000000 -0.333333
v 0.333333 2.000000 -0.333333
v 0.333333 2.000000 0.333334
v -0.333333 2.000000 -0.333333
v -0.333334 2.000000 0.333333
v 0.333333 0.000000 0.333333
v 0.333333 0.000000 -0.333333
v -0.333333 0.000000 0.333333
v -0.333333 0.000000 -0.333334
v -1.000000 0.666667 0.333333
v -1.000000 0.666667 -0.333334
v -1.000000 1.333333 0.333333
v -1.000000 1.333333 -0.333334
v 1.000000 0.666667 -0.333333
v 1.000000 0.666667 0.333334
v 1.000000 1.333333 -0.333333
v 1.000000 1.333333 0.333334
v 1.000000 0.000000 0.301409
v -1.000000 0.000000 0.301409
v 1.000000 2.000000 0.301410
v -1.000000 2.000000 0.301409
v 0.333333 2.000000 0.301409
v -0.333334 2.000000 0.301409
v 0.333333 0.000000 0.301409
v -0.333333 0.000000 0.301409
v -1.000000 0.666667 0.301409
v -1.000000 1.333333 0.301409
v 1.000000 0.666667 0.301409
v 1.000000 1.333333 0.301410
v -1.000000 0.000000 -0.300573
v -1.000000 2.000000 -0.300573
v 0.333333 0.000000 -0.300573
v -0.333333 0.000000 -0.300573
v -1.000000 0.666667 -0.300573
v -1.000000 1.333333 -0.300573
v 1.000000 0.000000 -0.300572
v 1.000000 2.000000 -0.300572
v 0.333333 2.000000 -0.300572
v -0.333333 2.000000 -0.300572
v 1.000000 0.666667 -0.300572
v 1.000000 1.333333 -0.300572
v -1.000000 0.000000 -0.963191
v -1.000000 2.000000 -0.963190
v 0.333333 0.000000 -0.963190
v -0.333333 0.000000 -0.963190
v -1.000000 0.666667 -0.963190
v -1.000000 1.333333 -0.963190
v 1.000000 0.000000 -0.963190
v 1.000000 2.000000 -0.963190
v 0.333334 2.000000 -0.963190
v -0.333333 2.000000 -0.963190
v 1.000000 0.666667 -0.963190
v 1.000000 1.333333 -0.963190
v 1.000000 0.000000 0.955285
v 0.999999 2.000000 0.955285
v 0.333333 2.000000 0.955285
v -0.333334 2.000000 0.955284
v 1.000000 0.666667 0.955285
v 1.000000 1.333333 0.955285
v -1.000000 0.000000 0.955284
v -1.000000 2.000000 0.955284
v 0.333333 0.000000 0.955284
v -0.333333 0.000000 0.955284
v -1.000000 0.666667 0.955284
v -1.000000 1.333333 0.955284
v -0.953216 0.000000 -1.000000
v -0.953216 0.000000 1.000000
v -0.953216 2.000000 -1.000000
v -0.953217 2.000000 1.000000
v -0.953216 1.333333 -1.000000
v -0.953216 0.666667 -1.000000
v -0.953217 0.666667 1.000000
v -0.953217 1.333333 1.000000
v -0.953216 2.000000 -0.333333
v -0.953217 2.000000 0.333333
v -0.953216 0.000000 -0.333334
v -0.953216 0.000000 0.333333
v -0.953216 0.000000 0.301409
v -0.953217 2.000000 0.301409
v -0.953216 2.000000 -0.300573
v -0.953216 0.000000 -0.300573
v -0.953216 0.000000 -0.963191
v -0.953216 2.000000 -0.963190
v -0.953217 2.000000 0.955284
v -0.953216 0.000000 0.955284
v -0.298245 0.000000 -1.000000
v -0.298246 0.000000 1.000000
v -0.298245 2.000000 -1.000000
v -0.298246 2.000000 1.000000
v -0.298246 0.666667 1.000000
v -0.298246 1.333333 1.000000
v -0.298245 1.333333 -1.000000
v -0.298245 0.666667 -1.000000
v -0.298245 0.000000 -0.333334
v -0.298246 0.000000 0.333333
v -0.298246 2.000000 -0.333333
v -0.298246 2.000000 0.333333
v -0.298246 2.000000 0.301409
v -0.298246 0.000000 0.301409
v -0.298245 0.000000 -0.300573
v -0.298246 2.000000 -0.300572
v -0.298245 2.000000 -0.963190
v -0.298245 0.000000 -0.963190
v -0.298246 0.000000 0.955284
v -0.298246 2.000000 0.955284
v 0.292398 2.000000 -0.333333
v 0.292397 2.000000 0.333334
v 0.292397 2.000000 0.301409
v 0.292398 2.000000 -0.300572
v 0.292398 2.000000 -0.963190
v 0.292397 2.000000 0.955285
v 0.292398 0.000000 -1.000000
v 0.292398 0.000000 1.000000
v 0.292398 2.000000 -1.000000
v 0.292397 2.000000 1.000000
v 0.292397 0.666667 1.000000
v 0.292397 1.333333 1.000000
v 0.292398 1.333333 -1.000000
v 0.292398 0.666667 -1.000000
v 0.292398 0.000000 -0.333333
v 0.292398 0.000000 0.333333
v 0.292398 0.000000 0.301409
v 0.292398 0.000000 -0.300573
v 0.292398 0.000000 -0.963190
v 0.292398 0.000000 0.955284
v 0.956140 0.000000 -1.000000
v 0.956140 0.000000 1.000000
v 0.956141 2.000000 -0.999999
v 0.956140 2.000000 1.000001
v 0.956140 0.666667 1.000000
v 0.956140 1.333333 1.000000
v 0.956141 1.333333 -1.000000
v 0.956141 0.666667 -1.000000
v 0.956140 0.000000 -0.333333
v 0.956140 0.000000 0.333333
v 0.956140 2.000000 -0.333333
v 0.956140 2.000000 0.333334
v 0.956140 2.000000 0.301410
v 0.956140 0.000000 0.301409
v 0.956140 0.000000 -0.300572
v 0.956140 2.000000 -0.300572
v 0.956141 2.000000 -0.963190
v 0.956140 0.000000 -0.963190
v 0.956140 0.000000 0.955285
v 0.956140 2.000000 0.955285
v 0.333333 0.043860 1.000000
v -0.333333 0.043860 1.000000
v 1.000000 0.043860 -1.000000
v 1.000000 0.043860 1.000000
v -1.000000 0.043860 1.000000
v -1.000000 0.043860 -1.000000
v 0.333333 0.043860 -1.000000
v -0.333333 0.043860 -1.000000
v 1.000000 0.043860 -0.333333
v 1.000000 0.043860 0.333333
v -1.000000 0.043860 0.333333
v -1.000000 0.043860 -0.333334
v -1.000000 0.043860 0.301409
v 1.000000 0.043860 0.301409
v 1.000000 0.043860 -0.300572
v -1.000000 0.043860 -0.300573
v 1.000000 0.043860 -0.963190
v -1.000000 0.043860 -0.963191
v -1.000000 0.043860 0.955284
v 1.000000 0.043860 0.955285
v -0.953216 0.043860 1.000000
v -0.953216 0.043860 -1.000000
v -0.298246 0.043860 1.000000
v -0.298245 0.043860 -1.000000
v 0.292398 0.043860 -1.000000
v 0.292398 0.043860 1.000000
v 0.956140 0.043860 1.000000
v 0.956140 0.043860 -1.000000
v 1.000000 0.713450 -1.000000
v 1.000000 0.713450 1.000000
v -1.000000 0.713450 1.000000
v -1.000000 0.713450 -1.000000
v 0.333333 0.713450 -1.000000
v -0.333333 0.713450 -1.000000
v 0.333333 0.713450 1.000000
v -0.333334 0.713450 1.000000
v 1.000000 0.713450 -0.333333
v 1.000000 0.713450 0.333334
v -1.000000 0.713450 0.333333
v -1.000000 0.713450 -0.333334
v -1.000000 0.713450 0.301409
v 1.000000 0.713450 0.301409
v 1.000000 0.713450 -0.300572
v -1.000000 0.713450 -0.300573
v 1.000000 0.713450 -0.963190
v -1.000000 0.713450 -0.963190
v -1.000000 0.713450 0.955284
v 1.000000 0.713450 0.955285
v -0.953217 0.713450 1.000000
v -0.953216 0.713450 -1.000000
v -0.298245 0.713450 -1.000000
v -0.298246 0.713450 1.000000
v 0.292397 0.713450 1.000000
v 0.292398 0.713450 -1.000000
v 0.956141 0.713450 -1.000000
v 0.956140 0.713450 1.000000
v 1.000000 1.292398 -1.000000
v 1.000000 1.292398 1.000000
v -1.000000 1.292398 1.000000
v -1.000000 1.292398 -1.000000
v 0.333334 1.292398 -1.000000
v -0.333333 1.292398 -1.000000
v -0.953216 1.292398 -1.000000
v -0.298245 1.292398 -1.000000
v 0.292398 1.292398 -1.000000
v 0.956141 1.292398 -1.000000
v 0.333333 1.292398 1.000000
v -0.333334 1.292398 1.000000
v 1.000000 1.292398 -0.333333
v 1.000000 1.292398 0.333334
v -1.000000 1.292398 0.333333
v -1.000000 1.292398 -0.333334
v -1.000000 1.292398 0.301409
v 1.000000 1.292398 0.301410
v 1.000000 1.292398 -0.300572
v -1.000000 1.292398 -0.300573
v 1.000000 1.292398 -0.963190
v -1.000000 1.292398 -0.963190
v -1.000000 1.292398 0.955284
v 1.000000 1.292398 0.955285
v -0.953217 1.292398 1.000000
v -0.298246 1.292398 1.000000
v 0.292397 1.292398 1.000000
v 0.956140 1.292398 1.000000
v 1.000000 1.953216 -0.999999
v 0.999999 1.953216 1.000001
v -1.000000 1.953216 1.000000
v -1.000000 1.953216 -1.000000
v 0.333334 1.953216 -1.000000
v -0.333333 1.953216 -1.000000
v 0.333333 1.953216 1.000000
v -0.333334 1.953216 1.000000
v -1.000000 1.953216 0.333333
v -1.000000 1.953216 -0.333333
v 1.000000 1.953216 -0.333333
v 1.000000 1.953216 0.333334
v 1.000000 1.953216 0.301410
v -1.000000 1.953216 0.301409
v 1.000000 1.953216 -0.300572
v -1.000000 1.953216 -0.300573
v 1.000000 1.953216 -0.963190
v -1.000000 1.953216 -0.963190
v -1.000000 1.953216 0.955284
v 0.999999 1.953216 0.955285
v -0.953216 1.953216 -1.000000
v -0.953217 1.953216 1.000000
v -0.298245 1.953216 -1.000000
v -0.298246 1.953216 1.000000
v 0.292397 1.953216 1.000000
v 0.292398 1.953216 -1.000000
v 0.956141 1.953216 -0.999999
v 0.956140 1.953216 1.000001
vn 0.0000 -1.0000 0.0000
vn 0.0000 1.0000 0.0000
vn 1.0000 0.0000 0.0000
vn 0.0000 0.0000 1.0000
vn -1.0000 0.0000 0.0000
vn 0.0000 0.0000 -1.0000
usemtl grani
s off
f 124//1 106//1 3//1 99//1
f 123//2 100//2 7//2 108//2
f 288//3 94//3 6//3 270//3
f 290//4 108//4 7//4 271//4
f 286//5 82//5 8//5 272//5
f 206//6 105//6 4//6 190//6
f 212//6 165//6 9//6 191//6
f 208//6 125//6 10//6 192//6
f 296//4 168//4 15//4 275//4
f 292//4 128//4 16//4 276//4
f 184//2 95//2 15//2 168//2
f 144//2 96//2 16//2 128//2
f 183//1 166//1 11//1 101//1
f 143//1 126//1 12//1 102//1
f 207//4 129//4 32//4 186//4
f 266//4 130//4 31//4 252//4
f 268//4 170//4 29//4 251//4
f 291//6 131//6 28//6 274//6
f 235//6 132//6 27//6 218//6
f 239//6 172//6 25//6 217//6
f 289//6 109//6 24//6 272//6
f 234//6 110//6 23//6 216//6
f 202//5 85//5 23//5 190//5
f 262//5 86//5 24//5 244//5
f 205//4 111//4 21//4 189//4
f 265//4 112//4 22//4 243//4
f 204//3 97//3 19//3 188//3
f 264//3 98//3 20//3 242//3
f 261//3 92//3 55//3 253//3
f 258//3 68//3 56//3 254//3
f 198//3 67//3 54//3 194//3
f 263//5 104//5 51//5 255//5
f 260//5 74//5 52//5 256//5
f 200//5 73//5 50//5 196//5
f 142//1 133//1 48//1 84//1
f 138//1 134//1 47//1 64//1
f 178//1 174//1 45//1 63//1
f 141//2 90//2 43//2 135//2
f 137//2 62//2 44//2 136//2
f 177//2 61//2 42//2 176//2
f 287//5 100//5 39//5 277//5
f 284//5 70//5 40//5 278//5
f 285//3 88//3 37//3 279//3
f 281//3 59//3 38//3 280//3
f 122//2 82//2 40//2 113//2
f 118//2 60//2 39//2 114//2
f 121//1 115//1 36//1 81//1
f 117//1 116//1 35//1 58//1
f 120//1 117//1 58//1 69//1
f 119//2 70//2 60//2 118//2
f 283//3 76//3 59//3 281//3
f 277//5 39//5 60//5 282//5
f 140//2 78//2 62//2 137//2
f 139//1 138//1 64//1 72//1
f 195//5 49//5 65//5 197//5
f 255//5 51//5 66//5 257//5
f 259//3 80//3 68//3 258//3
f 253//3 55//3 80//3 259//3
f 193//3 53//3 79//3 199//3
f 133//1 139//1 72//1 48//1
f 173//1 179//1 71//1 46//1
f 135//2 43//2 78//2 140//2
f 175//2 41//2 77//2 180//2
f 279//3 37//3 76//3 283//3
f 113//2 40//2 70//2 119//2
f 115//1 120//1 69//1 36//1
f 282//5 60//5 70//5 284//5
f 257//5 66//5 74//5 260//5
f 105//1 121//1 81//1 4//1
f 107//2 8//2 82//2 122//2
f 269//3 5//3 88//3 285//3
f 167//2 13//2 89//2 181//2
f 127//2 14//2 90//2 141//2
f 165//1 182//1 83//1 9//1
f 125//1 142//1 84//1 10//1
f 187//3 17//3 91//3 201//3
f 241//3 18//3 92//3 261//3
f 256//5 52//5 86//5 262//5
f 278//5 40//5 82//5 286//5
f 271//5 7//5 100//5 287//5
f 189//5 21//5 103//5 203//5
f 243//5 22//5 104//5 263//5
f 254//3 56//3 98//3 264//3
f 134//1 143//1 102//1 47//1
f 136//2 44//2 96//2 144//2
f 280//3 38//3 94//3 288//3
f 114//2 39//2 100//2 123//2
f 116//1 124//1 99//1 35//1
f 14//2 107//2 122//2 90//2
f 10//1 84//1 121//1 105//1
f 48//1 72//1 120//1 115//1
f 43//2 113//2 119//2 78//2
f 64//1 47//1 116//1 117//1
f 62//2 118//2 114//2 44//2
f 252//4 31//4 112//4 265//4
f 218//6 27//6 110//6 234//6
f 192//6 10//6 105//6 206//6
f 276//4 16//4 108//4 290//4
f 96//2 123//2 108//2 16//2
f 102//1 12//1 106//1 124//1
f 151//1 163//1 142//1 125//1
f 153//2 127//2 141//2 149//2
f 145//2 135//2 140//2 148//2
f 159//1 162//1 139//1 133//1
f 147//2 137//2 136//2 146//2
f 161//1 160//1 134//1 138//1
f 238//6 158//6 132//6 235//6
f 267//4 156//4 130//4 266//4
f 164//1 152//1 126//1 143//1
f 150//2 144//2 128//2 154//2
f 293//4 154//4 128//4 292//4
f 209//6 151//6 125//6 208//6
f 191//6 9//6 151//6 209//6
f 275//4 15//4 154//4 293//4
f 95//2 150//2 154//2 15//2
f 101//1 11//1 152//1 164//1
f 185//4 30//4 155//4 210//4
f 251//4 29//4 156//4 267//4
f 273//6 26//6 157//6 294//6
f 217//6 25//6 158//6 238//6
f 83//1 46//1 159//1 163//1
f 63//1 45//1 160//1 161//1
f 89//2 149//2 145//2 41//2
f 61//2 147//2 146//2 42//2
f 77//2 148//2 147//2 61//2
f 71//1 63//1 161//1 162//1
f 46//1 71//1 162//1 159//1
f 41//2 145//2 148//2 77//2
f 13//2 153//2 149//2 89//2
f 9//1 83//1 163//1 151//1
f 45//1 101//1 164//1 160//1
f 42//2 146//2 150//2 95//2
f 38//2 176//2 184//2 94//2
f 34//1 93//1 183//1 174//1
f 1//1 87//1 182//1 165//1
f 5//2 167//2 181//2 88//2
f 37//2 175//2 180//2 76//2
f 33//1 75//1 179//1 173//1
f 75//1 57//1 178//1 179//1
f 76//2 180//2 177//2 59//2
f 59//2 177//2 176//2 38//2
f 88//2 181//2 175//2 37//2
f 57//1 34//1 174//1 178//1
f 87//1 33//1 173//1 182//1
f 213//6 17//6 172//6 239//6
f 269//6 18//6 171//6 295//6
f 242//4 20//4 170//4 268//4
f 188//4 19//4 169//4 211//4
f 93//1 2//1 166//1 183//1
f 94//2 184//2 168//2 6//2
f 270//4 6//4 168//4 296//4
f 187//6 1//6 165//6 212//6
f 17//6 187//6 212//6 172//6
f 2//4 188//4 211//4 166//4
f 11//4 185//4 210//4 152//4
f 25//6 191//6 209//6 158//6
f 152//4 210//4 207//4 126//4
f 12//4 186//4 205//4 106//4
f 34//3 194//3 204//3 93//3
f 3//5 189//5 203//5 99//5
f 36//5 196//5 202//5 81//5
f 1//3 187//3 201//3 87//3
f 58//5 197//5 200//5 69//5
f 33//3 193//3 199//3 75//3
f 75//3 199//3 198//3 57//3
f 35//5 195//5 197//5 58//5
f 69//5 200//5 196//5 36//5
f 99//5 203//5 195//5 35//5
f 57//3 198//3 194//3 34//3
f 87//3 201//3 193//3 33//3
f 93//3 204//3 188//3 2//3
f 106//4 205//4 189//4 3//4
f 81//5 202//5 190//5 4//5
f 166//4 211//4 185//4 11//4
f 126//4 207//4 186//4 12//4
f 132//6 208//6 192//6 27//6
f 110//6 206//6 190//6 23//6
f 19//4 214//4 240//4 169//4
f 241//6 213//6 239//6 250//6
f 245//6 217//6 238//6 249//6
f 30//4 219//4 237//4 155//4
f 155//4 237//4 236//4 129//4
f 32//4 220//4 233//4 111//4
f 54//3 222//3 232//3 97//3
f 21//5 215//5 231//5 103//5
f 50//5 224//5 230//5 85//5
f 17//3 213//3 229//3 91//3
f 65//5 225//5 228//5 73//5
f 53//3 221//3 227//3 79//3
f 79//3 227//3 226//3 67//3
f 49//5 223//5 225//5 65//5
f 73//5 228//5 224//5 50//5
f 103//5 231//5 223//5 49//5
f 67//3 226//3 222//3 54//3
f 91//3 229//3 221//3 53//3
f 97//3 232//3 214//3 19//3
f 111//4 233//4 215//4 21//4
f 85//5 230//5 216//5 23//5
f 247//6 234//6 216//6 244//6
f 248//6 235//6 218//6 246//6
f 169//4 240//4 219//4 30//4
f 129//4 236//4 220//4 32//4
f 131//6 248//6 246//6 28//6
f 171//6 250//6 245//6 26//6
f 109//6 247//6 244//6 24//6
f 28//6 246//6 247//6 109//6
f 157//6 249//6 248//6 131//6
f 26//6 245//6 249//6 157//6
f 18//6 241//6 250//6 171//6
f 214//4 242//4 268//4 240//4
f 219//4 251//4 267//4 237//4
f 215//5 243//5 263//5 231//5
f 213//3 241//3 261//3 229//3
f 221//3 253//3 259//3 227//3
f 223//5 255//5 257//5 225//5
f 228//5 260//5 256//5 224//5
f 226//3 258//3 254//3 222//3
f 232//3 264//3 242//3 214//3
f 233//4 265//4 243//4 215//4
f 230//5 262//5 244//5 216//5
f 236//4 266//4 252//4 220//4
f 20//4 270//4 296//4 170//4
f 5//6 269//6 295//6 167//6
f 13//6 273//6 294//6 153//6
f 29//4 275//4 293//4 156//4
f 153//6 294//6 291//6 127//6
f 14//6 274//6 289//6 107//6
f 22//5 271//5 287//5 104//5
f 18//3 269//3 285//3 92//3
f 55//3 279//3 283//3 80//3
f 51//5 277//5 282//5 66//5
f 68//3 281//3 280//3 56//3
f 74//5 284//5 278//5 52//5
f 107//6 289//6 272//6 8//6
f 167//6 295//6 273//6 13//6
f 127//6 291//6 274//6 14//6
f 130//4 292//4 276//4 31//4
f 86//5 286//5 272//5 24//5
f 112//4 290//4 271//4 22//4
f 98//3 288//3 270//3 20//3
usemtl red
f 201//3 91//3 53//3 193//3
f 274//6 28//6 109//6 289//6
f 162//1 161//1 138//1 139//1
f 148//2 140//2 137//2 147//2
f 249//6 238//6 235//6 248//6
f 237//4 267//4 266//4 236//4
f 225//5 257//5 260//5 228//5
f 227//3 259//3 258//3 226//3
f 56//3 280//3 288//3 98//3
usemtl green
f 211//4 169//4 30//4 185//4
f 295//6 171//6 26//6 273//6
f 203//5 103//5 49//5 195//5
f 174//1 183//1 101//1 45//1
f 163//1 159//1 133//1 142//1
f 158//6 209//6 208//6 132//6
f 31//4 276//4 290//4 112//4
f 52//5 278//5 286//5 86//5
f 104//5 287//5 277//5 51//5
usemtl white
f 182//1 173//1 46//1 83//1
f 180//2 77//2 61//2 177//2
f 196//5 50//5 85//5 202//5
f 47//1 102//1 124//1 116//1
f 90//2 122//2 113//2 43//2
f 146//2 136//2 144//2 150//2
f 231//5 263//5 255//5 223//5
f 240//4 268//4 251//4 219//4
f 66//5 282//5 284//5 74//5
usemtl yellow
f 179//1 178//1 63//1 71//1
f 197//5 65//5 73//5 200//5
f 176//2 42//2 95//2 184//2
f 44//2 114//2 123//2 96//2
f 160//1 164//1 143//1 134//1
f 149//2 141//2 135//2 145//2
f 210//4 155//4 129//4 207//4
f 27//6 192//6 206//6 110//6
f 170//4 296//4 275//4 29//4
usemtl blue
f 199//3 79//3 67//3 198//3
f 194//3 54//3 97//3 204//3
f 78//2 119//2 118//2 62//2
f 84//1 48//1 115//1 121//1
f 186//4 32//4 111//4 205//4
f 294//6 157//6 131//6 291//6
f 220//4 252//4 265//4 233//4
f 229//3 261//3 253//3 221//3
f 80//3 283//3 281//3 68//3
usemtl color
f 181//2 89//2 41//2 175//2
f 72//1 64//1 117//1 120//1
f 172//6 212//6 191//6 25//6
f 246//6 218//6 234//6 247//6
f 250//6 239//6 217//6 245//6
f 222//3 254//3 264//3 232//3
f 224//5 256//5 262//5 230//5
f 156//4 293//4 292//4 130//4
f 92//3 285//3 279//3 55//3
