# Blender v2.79 (sub 0) OBJ File: 'telek.blend'
# www.blender.org
mtllib telek.mtl
o Alpha_red_red
v -2.840623 0.643314 -0.818588
v -2.840623 -0.010079 -0.818588
v -2.840623 0.643314 -0.165195
v -2.840623 -0.010079 -0.165195
v -3.494016 0.643314 -0.818588
v -3.494016 -0.010079 -0.818588
v -3.494016 0.643314 -0.165195
v -3.494016 -0.010079 -0.165195
vn 1.0000 0.0000 0.0000
vn 0.0000 0.0000 1.0000
vn -1.0000 0.0000 0.0000
vn 0.0000 0.0000 -1.0000
vn 0.0000 1.0000 0.0000
vn 0.0000 -1.0000 0.0000
usemtl red
s off
f 1//1 3//1 4//1 2//1
f 3//2 7//2 8//2 4//2
f 7//3 5//3 6//3 8//3
f 5//4 1//4 2//4 6//4
f 3//5 1//5 5//5 7//5
f 8//6 6//6 2//6 4//6
o Grey_grey
v -3.519505 -1.500000 3.420000
v -3.519505 1.500000 3.420000
v -3.519505 -1.500000 -3.420000
v -3.519505 1.500000 -3.420000
v -2.519505 -2.000000 4.000000
v -2.519505 2.000000 4.000000
v -2.519505 -2.000000 -4.000000
v -2.519505 2.000000 -4.000000
v -2.519505 2.000000 3.910497
v -2.519505 -2.000000 -3.883675
v -2.519505 2.000000 -3.883675
v -2.519505 -1.886459 3.910497
v -2.519505 1.887500 -4.000000
v -2.519505 1.887500 4.000000
v -2.519505 1.887500 -3.883675
v -2.519505 1.887500 3.910497
v -2.519505 -2.000000 3.910497
v -2.519505 -1.886459 -4.000000
v -2.519505 -1.886459 4.000000
v -2.519505 -1.886459 -3.883675
vn -0.5017 0.0000 -0.8650
vn -0.4472 -0.8944 0.0000
vn -0.4472 0.8944 0.0000
vn -1.0000 0.0000 0.0000
vn -0.5017 0.0000 0.8650
vn 1.0000 0.0000 0.0000
usemtl grey
s off
f 11//7 12//7 16//7 21//7 26//7 15//7
f 11//8 15//8 18//8 25//8 13//8 9//8
f 16//9 12//9 10//9 14//9 17//9 19//9
f 10//10 12//10 11//10 9//10
f 27//11 22//11 14//11 10//11 9//11 13//11
usemtl black
f 26//12 21//12 23//12 28//12
f 24//12 17//12 14//12 22//12
f 20//12 24//12 22//12 27//12
f 21//12 16//12 19//12 23//12
f 18//12 28//12 20//12 25//12
f 25//12 20//12 27//12 13//12
f 15//12 26//12 28//12 18//12
f 23//12 19//12 17//12 24//12
usemtl green
f 28//12 23//12 24//12 20//12
o Black_black
v -2.686553 -2.000000 4.000000
v -2.686553 2.000000 4.000000
v -2.686553 -2.000000 -4.000000
v -2.686553 2.000000 -4.000000
v -2.524235 -2.000000 4.000000
v -2.524235 2.000000 4.000000
v -2.524235 -2.000000 -4.000000
v -2.524235 2.000000 -4.000000
vn -1.0000 0.0000 0.0000
vn 0.0000 0.0000 -1.0000
vn 1.0000 0.0000 0.0000
vn 0.0000 0.0000 1.0000
vn 0.0000 -1.0000 0.0000
vn 0.0000 1.0000 0.0000
usemtl black
s off
f 29//13 30//13 32//13 31//13
f 31//14 32//14 36//14 35//14
f 35//15 36//15 34//15 33//15
f 33//16 34//16 30//16 29//16
f 31//17 35//17 33//17 29//17
f 36//18 32//18 30//18 34//18
